<svg version="1.2" xmlns="http://www.w3.org/2000/svg" viewBox="0 0 1280 260" width="1280" height="260">
	<defs>
		<linearGradient id="g1" x2="1" gradientUnits="userSpaceOnUse" gradientTransform="matrix(1268.481,-172.853,41.006,300.923,6,259.769)">
			<stop offset="0" stop-color="#866ee7"/>
			<stop offset=".25" stop-color="#ea60da"/>
			<stop offset=".5" stop-color="#ed8f57"/>
			<stop offset=".75" stop-color="#fbd41d"/>
			<stop offset="1" stop-color="#2cca91"/>
		</linearGradient>
	</defs>
	<style>
		.s0 { fill: url(#g1) } 
	</style>
	<path class="s0" d="m40.1 87.04l2.76 2.75 4.87-1.8q6.89 3.82 10.38 3.82l11.33-2.86h5.62v1.8l2.86-1.8h1.06l6.77 4.55v1.91l-1.06-0.85h-2.01l1.06 4.77q-3.28 6.56-10.38 6.56h-14.3l-5.72 7.63-1.9 22.77v61.54q5.08 0 6.67 6.78l0.95-0.96h1.06l5.62 3.71q25.52-3.39 25.52-6.67l4.87-5.72h3.71l0.85 1.06 3.92-1.91-1.91-5.61 2.75-1.06-0.84-2.86h-2.86l-2.76 1.9h-2.01v-0.95q0.21-4.66 2.01-4.66l-2.01-6.67q0-7.73 9.43-11.33v0.84l0.95-0.84h2.01q1.38 0 3.71 7.52l-0.95 3.81 0.95 3.81-0.95 5.62 0.95 4.87-0.95 0.84v1.06l0.95 0.96v0.84l-0.95 4.66 0.95 2.86-0.95 0.96 0.95 6.67v6.78q-3.71 3.07-3.71 6.46-3.7 2.86-8.68 2.86h-49.25l-2.76-2.86q1.27 0 2.76-3.71h-1.91v-0.95l-4.66 1.8-2.01-1.8-4.66 3.81-0.96-1.06-0.84 1.06h-15.25q0 2.76-1.91 2.76h-2.01q-10.38 0-10.38-8.37v-4.87l1.06-1.06-1.06-0.85v-0.95q0-2.54 9.53-3.71h4.77l5.72 4.66h1.8q6.35-4.02 8.57-12.39l2.86-0.85v-0.95l-1.9-5.72q-2.86 0-2.86-1.91v-36.86l-0.85-13.45q1.91-4.66 1.91-16.94v-4.77q-4.03 0-5.83-5.72h-12.28q-12.29 0-12.29-8.47v-1.91q6.99-7.63 12.29-7.63l0.95 0.96h0.95l2.97-0.96q0 2.86 3.71 2.86l0.84 2.76h0.96v-0.85l-0.96-2.75 2.86-2.02 1.91 2.02q0-2.23 7.62-4.77zm68.21 100.41h-1.9v2.96l1.9-1.9zm70.76-66.94l1.8-2.12q0.21 2.86 22.87 23.83v0.85q-2.11 0-2.11 4.98l-2.86 1.06 1.05 4.97q0 2.02-3.07 2.02v0.84l2.02 2.12q0-2.33 4.02-4.02 2.86 0.63 2.86 8.05v1.9l-0.85 0.96 0.85 0.95v0.95q0 2.97-9.85 4.98h-18.75l-36.75 1.06q0 2.65-4.87 5.93l-0.96 4.03v0.95q5.51 4.55 7.84 10.91l15.04 11.86-1.16 0.85h10.91q4.55 0 10.8-6.78l17.9-16.84q9 0 9 7.84 0 7.83-13.03 21.92-13.98 7.84-27.74 8.9l-0.85-1.06v-0.95l-0.96 0.95h-3.17l-1.7-2.01 0.85-0.85q-4.87 0-4.87-2.12l0.85-0.95-1.91-3.07q-7.73 0-11.97 4.02l-11.86-9.85 3.92-4.98q-3.92 0-3.92-6.88h0.95l-0.95-1.17v-0.84l0.95-1.06v-0.96h-0.95l-2.97 2.02q-4.87 0-4.87-19.81 0-23.72 3.81-23.72l-0.84-3.08q0-4.02 4.87-4.02 0-7.84 20.86-20.76l10.91-2.97q11.23 0 14.83 4.03l2.86-4.03zm-41.62 33.58q0.31 3.49 8.05 8.05l0.84-1.06h32.73l1.06 1.06q5.82-3.81 8.79-9-7.94-15.79-21.71-15.79h-8.9q-12.81 0-20.86 16.74zm60.47 26.9h0.96l0.95 0.85v1.06l-0.95 0.95h-0.96l-0.95-0.95v-1.06zm4.87 2.12h0.96l4.97 5.93-1.06 0.95h-0.84l-5.09-5.82zm-69.27 10.69l-3.07 1.06v1.06l4.03 3.92h1.06l0.84-2.86q-2.86 0-2.86-3.18zm110.26-64.71l4.66-2.75h11.23l3.49 2.75 9.43-2.75q0.11 1.8 9.22 8.26 4.66 6.25 4.66 9.21v1.91l-3.71 5.51 1.8 2.75-1.06 3.71q2.01 0 2.01 2.75h1.8v-3.71h2.02l-1.06 32.41v11.02q0 5.19 5.5 8.47l6.57-6.46-1.06-3.71q4.77-6.56 10.28-6.56l2.85 7.41-2.01 9.32-3.6-1.9-0.85 0.95h-1.06l-2.75-0.95q-2.65 4.66-5.61 4.66v1.8l1.9 1.9-0.84 3.71-1.06-0.85-0.85 0.85h-0.85l-2.01-1.91-6.35 2.76h-4.66q-5.72-5.51-8.37-5.51l-18.54 10.17-1.69-3.6 1.69-5.62q-3.7 0.85-3.7 3.71l-0.85-0.85q-6.89 1.06-11.02 6.36h-5.72q-9.32 0-17.58-15.68-1.8-3.71-1.8-10.17v-9.32l1.8-1.8v1.8h1.91l-2.76-3.7q8.69-13.67 18.43-16.63-2.64-5.4-13.76-9.22l-1.91-4.66-0.95 0.85h-0.96l-0.85-0.85v-0.95h1.81v-6.57q0-8.47 11.12-16.52h0.95l2.75 1.8q0-2.33 9.22-4.55h1.9zm-3.7 26.79v0.85l5.51 5.51-1.81 1.9h0.85l14.94-0.84 2.75 1.69q10.06 0 10.06-6.35h1.06l0.85 0.84h0.85l1.05-0.84v-1.91q-1.9 0-1.9-4.55-7.31-10.28-13.03-10.28h-11.97q-9.21 6.15-9.21 13.98zm40.56 2.76h-1.69l0.95 0.84v1.91h-2.86v2.75h1.91l1.69-3.6zm-38.76 6.36l-5.62-5.62-0.84 0.96v1.06q4.13 3.6 6.46 3.6zm-19.49 30.5h1.06q1.69 0 9.21 9.22l5.51 3.81h0.95l7.42-1.91h5.51l2.75 1.91h2.01q13.56-7.41 16.63-16.84l-1.06-0.74v-0.96l1.06-5.5v-0.96q-3.07 0-5.61-4.66v-0.84h0.95l4.66 3.6v-0.85q-1.06-3.18-3.81-3.81l-36.12 5.5q-11.12 8.9-11.12 13.03zm85.16 19.38v0.96q-7.42 9.21-11.02 9.21l-1.06-0.85v-0.84q10.17-8.48 12.08-8.48zm81.02-93.31h0.95l11.44 1.8 1.91-1.8q0 2.86 12.39 13.35v0.85h-1.91l0.96 0.95v6.78q0 12.5-8.58 17.16h-7.63l-7.62-7.63-0.96 0.95v-0.95l0.96-1.06v-0.85q0-4.34-6.89-10.48v-0.96h-0.84q-22.04 17.06-22.04 33.47l-0.95 5.62-1.06-0.85h-0.85l-3.81 0.85q-7.62 0-7.62-6.68v-5.72q0-23.83-6.68-23.83 0-1.9-2.96-1.9l-2.76 0.84q-16.31 0-16.31-8.47 0-7.41 12.4-8.58h11.54l0.95 0.96h0.85l2.97-2.97h1.8l3.92 2.97 0.95-0.96v-1.06l13.24 11.55h1.06zm-37.39 16.2h-1.91l0.96 5.62h0.95l0.95-4.77zm-5.72 3.92h-1.8v0.85q1.91 3.92 4.66 3.92h0.96v-1.06q-3.82 0-3.82-3.71zm10.59 0.85l-1.9 2.01v1.91l1.9-1.91zm-2.96 43v-1.91h2.01q0 3.29 6.67 3.82 0 12.07 6.57 17.37v0.84l4.87-0.84h7.63l0.95 0.84h0.96v-0.84l-0.96-1.06v-0.85h0.96l2.01 1.91-1.06 0.84v0.85q4.87 0.43 4.87 2.97l-1.06 0.95v0.95h2.12v0.96q0 10.59-13.56 10.59h-21.92l-17.16 0.95-10.49-0.95-1.05 0.95q-4.88-5.29-4.88-7.73l-0.95 0.95h-0.85v-0.95l3.82-6.67v0.95q4.13-0.95 7.62-6.67 4.24 0 8.69 3.7h0.84q1.7-5.61 5.72-5.61v-3.81q0-11.55 6.78-11.55h1.91zm-7.63 18.33l-2.86 2.64 2.86-0.95zm135.57-81.66q27.54 3.07 27.54 23.73l-0.85 17.05v1.9l0.85 3.92-0.85 3.71v7.63l0.85 3.7-0.85 3.92v8.48h-2.01l-0.95-2.86-2.86 0.95v0.95q3.6 6.25 7.52 7.73h1.06v-1.05q-2.76 0-2.76-2.02v-0.84h0.85l12.39 10.48v5.61l-2.86 3.82 1.91 2.01-1.06 0.85h-1.91l-0.84-0.85h-0.96l-1.9 1.8h-4.77l-28.6-0.95-1.69-2.86 9.32-8.37h3.92l4.66 0.74q3.81-4.98 3.81-8.37l-2.75-4.87 1.69-3.81-0.84-2.75-1.91 1.8h1.91q0 1.9-5.62 2.86l0.85-0.96v-23.72l-0.85-5.72 2.86-8.58-2.86-2.75v-0.96q0-1.9 2.86-1.9-4.13-9.64-9.64-9.64h-9.42q-19.28 12.6-26.69 33.25v12.5l-0.85 14.2 7.63 5.61 1.9-1.8v1.8h0.96l2.75-0.85 1.91 4.66 0.84-0.74h1.06l0.96 0.74v0.95q-2.34 0-2.86 4.88-2.55 0-8.48 5.61l-1.06-0.95-0.95 0.95h-3.81q-30.29 0-30.29-5.61v-4.88l14.19-13.23q0-16.1 4.76-16.1l-3.7-4.88v-21.81l1.8-2.76q-1.8-6.56-14.2-15.25l-2.85-4.66v-0.95l1.8-2.86-1.8-2.02 4.87-3.81 2.75 1.91 0.85-0.85h0.95l7.63 0.85 2.96-0.85q9.43 0 11.34 13.24l4.76 2.86h0.96q3.17-1.27 9.42-11.33 6.04-2.54 6.67-4.77l4.77 0.85h1.06q1.38 0 2.75-3.71zm-64.6 10.49h0.84l0.96 0.95v0.85l-0.96 1.06h-0.84l-0.96-1.06v-0.85zm0 3.71h0.96l8.47 9.53-1.06 0.85h-0.74l-8.58-9.43zm-0.95 82.72v-1.06h0.95l5.72 5.72-0.95 1.06h-1.06zm147.96-131.34h0.95q13.14 3.92 13.14 13.24v4.77q0 4.98-7.63 10.38h-9.21l-7.63-6.67q-3.71 0-3.71-1.8l0.85-0.96h0.95l1.91 1.8v-0.84l-0.95-5.83q0-1.91 11.33-14.09zm-14.09 37.71l4.56 2.86 6.78-1.8v1.8q-3.82 0.53-3.82 2.97v1.69h0.96l2.86-0.85 0.84 2.86 12.29-5.61 2.01 8.47-1.06 4.77v41.52l-1.9 1.8-3.82-1.8v0.95l1.91 2.86q-3.81 2.12-3.81 5.51l-0.85-0.85h-0.95l1.8-6.67h-0.85l-5.61 3.81-0.96-0.95v-4.66l0.96-2.97-0.96-4.55v-31.25q0-1.9-2.86-1.9l-1.06-0.85v-0.95l1.06-1.06q-3.81 0-3.81-3.71-6.88 0-16.95 7.63l-1.06-1.06q-4.76-4.98-4.76-8.48l3.07-2.01-1.06-0.85v-0.84q7.2-5.83 17.05-5.83zm11.34 73.72l13.13-9.43 0.95 0.95v8.48q0 5.29 6.67 7.52v1.06l0.85-1.06h2.86l0.96 1.06 2.85-1.06 7.63 1.06 2.75-2.76 0.96 0.85v0.85l-4.77 5.72v2.75l2.76-1.8 2.01 1.8q-2.23 0-4.77 2.86l-3.71-1.8-13.23 2.86q0 3.71-5.72 3.71v0.95l-11.34-0.95h-19.8l-3.82 0.95q-8.47-0.53-8.47-3.71l0.85-2.86h-0.85l-1.91-2.01q0-11.23 10.38-11.23l2.76 3.82 1.06-1.06h8.47l0.95 1.06h0.96q0-1.91 4.76-1.91l1.8-8.69h2.02zm-36.97 20.87v-0.85h0.95l5.62 5.62v0.95h-0.85zm143.09-97.87q27.65 3.08 27.65 23.73l-0.96 17.16v1.8l0.96 3.92-0.96 3.7v7.63l0.96 3.81-0.96 3.82v8.47h-1.8l-1.06-2.86-2.86 1.06v0.95q3.5 6.14 7.63 7.52h0.85v-0.85q-2.76 0-2.76-2.01v-0.85h0.96l12.28 10.49v5.61l-2.86 3.82 1.91 1.9-0.85 0.85h-2.01l-0.74-0.85h-1.06l-1.8 1.91h-4.87l-28.5-1.06-1.9-2.75 9.53-8.58h3.81l4.66 0.84q3.71-4.97 3.71-8.47l-2.75-4.76 1.8-3.71-0.96-2.76-1.8 1.7h1.8q0 2.01-5.61 2.86l1.06-0.85v-23.72l-1.06-5.72 2.97-8.69-2.97-2.75v-0.96q0-1.9 2.97-1.9-4.13-9.64-9.64-9.64h-9.43q-19.17 12.71-26.69 33.26v12.5l-0.85 14.29 7.52 5.62 2.02-1.8v1.8h0.95l2.75-0.85 1.8 4.55 1.06-0.84h0.96l0.84 0.84v1.06q-2.33 0-2.86 4.88-2.43 0-8.36 5.61l-0.96-1.06-1.06 1.06h-3.81q-30.4 0-30.4-5.61v-4.88l14.41-13.24q0-16.2 4.55-16.2l-3.7-4.87v-21.82l1.9-2.76q-1.9-6.46-14.19-15.25l-2.97-4.66v-0.95l2.02-2.86-2.02-2.01 4.88-3.71 2.75 1.8 0.85-0.85h1.06l7.62 0.85 2.86-0.85q9.53 0 11.33 13.24l4.88 2.76h0.84q3.29-1.17 9.54-11.23 6.03-2.54 6.67-4.77l4.87 0.85h0.85q1.37 0 2.75-3.71zm-64.61 10.49h0.96l1.06 0.95v0.96l-1.06 0.95h-0.96l-0.84-0.95v-0.96zm0 3.82h0.84l8.58 9.42-0.95 1.06h-0.85l-8.68-9.64zm-0.85 82.72v-0.95h0.85l5.82 5.72-1.06 0.95h-0.84zm144.15-88.01l6.67-6.78h2.86q7.94 0 11.33 5.72l1.06-0.85h1.8q2.76 0 2.76 3.71 7.52-0.96 13.23-8.58h7.74q15.67 0 18.96 18.96-1.91 10.48-3.92 10.48l-1.91-1.8-0.85 0.85h-0.95l-0.95-0.85h-0.96l-2.86 0.85v-2.86l-1.06 0.95h-0.84l-0.85-0.95h-1.06v0.95l1.06 2.86-1.06 1.06h-0.85l-2.86-2.86h-0.95l0.95 0.85v2.01l-3.92 4.56v3.92q0 27.11-22.66 32.09l0.95 1.06v0.84l-2.86 3.71h1.91l2.01 2.86 2.75-0.95 0.96 0.95v1.06l0.85-1.06h1.05q4.66 0.74 4.66 4.87l6.68 1.8 0.84-0.84 3.92 0.84 7.63-1.8q12.18 9.53 12.18 18.86v3.91q-10.06 6.89-17.9 16h-1.06l2.97 5.61q-6.68 6.78-24.68 6.78h-6.67q-17.59 0-21.72-3.07l1.91-3.71q-4.77 0-4.77-1.91h-2.86q0 2.97-2.86 2.97-17.9-5.19-17.9-20.87v-5.71q1.91-1.91 1.91-8.48 3.71-2.12 3.71-4.87l-3.71-13.24v-6.46q0-4.87 10.38-15.25v-3.71l-1.91-10.38v-3.92q0-18.32 7.52-23.62 5.62-4.02 14.2-6.56zm-10.38 31.24q0 12.82 18.85 23.51 14.51 0 20.86-12.18l-0.95-4.76q0-6.57 4.87-6.57v-3.92q-2.64 0-11.33-12.39l-7.63-2.75h-5.82q-12.82 0-18.85 19.06zm52.95-14.3h-1.8v3.92h0.85zm-49.14 42.58l-9.43 8.58v1.8q2.12 4.34 6.57 6.57h2.86q7.41 0 14.19-9.32l-1.06-2.86 1.06-1.06-7.63 1.06-6.56-2.02v-0.84l1.06-1.06v-0.85zm-10.49 38.87v1.8l14.19 12.29-0.95 0.95v0.95q2.75 0 2.75 2.86h2.86l2.02-3.81-1.06-2.65 1.06-1.06h0.95l0.85 1.06 0.95-1.06h0.95l3.71 2.76h14.3q18.96 0 25.63-11.34-4.87-14.19-32.3-14.19h-17.06q-16.41 0-18.85 11.44zm146.16-142.56h20.23l1.91 1.8-0.95 1.06h2.96l16.21-1.91 22.87 1.91 0.96-1.06h1.06q27.53 7.31 27.53 25v1.9h-1.8l-2.75-0.85-4.87 0.85h-4.77q-9.64-10.59-30.61-10.59h-12.5q-1.27 5.83-6.67 5.83v13.34l-4.66-0.85 0.85 0.85-0.85 4.77v2.86l3.71-2.86 0.95 1.06h0.95l-0.95 0.95v2.86l0.95 3.81-0.95 3.82 7.63 5.61 7.62-0.85 18.33 0.85q8.15 0 17.15-13.24l-0.95-3.81 0.95-1.06-0.95-0.96v-0.84l3.71-3.82 1.06 0.85h0.95q1.27-6.67 2.86-6.67l1.06 0.95-1.06 1.06v3.81h1.91v0.85l3.7-1.8 1.06 0.95v6.68q0 13.66-15.25 26.79l3.71 11.55-0.85 0.85-0.95-0.85h-0.96l-15.35 1.9q-2.86-7.83-11.44-7.83h-17.27q-1.27 5.93-6.67 5.93l0.95 3.7-0.95 7.63 0.95 7.63-0.95 9.63q0 5.41 17.16 9.64 4.87 3.07 4.87 7.63v2.86q-3.39 6.78-17.26 6.78l-21.08-1.06v-0.96q2.75-4.76 5.72-4.76l-5.72-7.63-2.86 0.85 3.81 4.87v1.06l-3.81 0.85-2.86-2.86-4.76 4.77 2.85 0.95v1.9h-1.05q-9.43-2.85-9.43-9.53v-2.01q0-5.51 15.25-10.49 0-1.9 3.81-1.9l0.96 0.95v-11.54h1.9v2.01h1.91l-3.81-14.41-0.96-28.7 1.91-1.9-1.91-2.86v-7.63q0-2.01 5.83-2.01l0.95-4.66v-1.91q0-1.59-6.78-2.86v-9.64q-8.26-9.64-16.2-9.64l-1.06-0.95v-1.91q0-13.34 3.81-13.34zm80.5 89.92l0.95 1.06h0.85l3.07-1.06 2.86 9.64-2.86 2.86 0.85 0.95v0.96l-0.85 0.84v0.96q10.59 11.65 16.1 11.65l7.73 6.67h-1.91v5.72q-1.9 6.78-9.63 6.78h-10.49q-13.34 0-13.34-11.55v-0.95q6.03-2.54 6.67-4.77l-1.91-5.93 0.95-0.85v-0.95h-1.8l-3.07 1.8-4.76-19.06v-1.91q0-2.86 10.59-2.86zm68.42-59.31h0.95l5.93 6.67-1.06 1.17h-0.95l-5.72-6.89zm-4.98 5.72l4.98-0.85q2.86 3.82 2.86 8.79v15.57l-1.06 3.08 1.06 4.87v5.72q0 43.95 7.73 43.95l3.92 2.86h4.87q10.7 0 25.42-23.51v1.16l2.86-1.16-0.95-16.31v-2.12l0.95-5.93-0.95-3.81 0.95-0.85h1.06q0-12.5-6.88-16.63l-4.87-1.06q0-1.48-6.78-3.81v-3.92l6.78-6.04 4.87 1.06h8.68l4.88-1.06 1.05 1.06 2.02-1.91q2.86 0 3.7 13.67v64.29q0 2.54 10.91 5.93l2.86 3.92v1.06q-2.01 3.92-4.87 3.92l2.01 2.86-1.06 0.95-0.95-0.95h-2.86v1.8q2.86 0 2.86 2.11v1.06h-1.91l-2.96-2.12-2.86 2.12-8.79-1.06-2.97 1.06v-1.06l0.96-1.06v-1.05q-3.18 0-8.8-7.74l-0.95-0.84h-0.95q-12.92 12.6-23.41 12.6h-6.88q-12.93 0-21.4-16.63l-0.95-0.95 0.95-0.95v-0.96q-4.02 0-4.76-20.65v-5.72q0-7.73 5.71-7.73v-2.01l-4.87-5.72 2.02-9.85q0-8.16-5.94-13.67l1.06-0.95v-1.06q-5.93 0-7.73-3.81-3.07 0-3.07-2.02l1.91-2.85-0.96-1.06q2.97 0 6.99-4.03zm-26.48 8.9h0.96l6.04 6.88-1.17 1.06h-0.85l-5.93-6.88zm8.79 7.73h0.96l1.05 0.95v1.06l-1.05 0.85h-0.96l-0.84-0.85v-1.06zm63.33 2.86l-2.01-2.86h2.01l1.8 1.91-0.84 0.95zm-2.97-1.8h0.95l1.06 0.85v0.95l-1.06 1.17h-0.95l-0.85-1.17v-0.95zm112.48-17.79h1.06l5.51 6.67-0.85 0.84h-0.95l-5.61-6.46zm-43.85 0.85h2.75q24.36 2.54 25.1 8.37h3.82q0-3.81 5.61-6.46h0.85l2.75 1.9 0.95-0.95v-0.95q3.82 0.95 3.82 5.61v10.38l0.95 4.56q-2.65 0-4.77 6.56l-6.46 7.52-0.95-1.06-0.95 1.06q-6.99-19.7-24.26-19.7h-7.41q-5.09 0-12.18 9.43l0.95 2.75-1.9 1.8q4.02 2.02 7.52 7.52l22.45 4.56-1.06 0.95v2.86l1.91 1.91h1.9l4.66-0.96v1.8l4.56-0.84 1.06 0.84v1.06l8.47-1.9-3.81-4.77 0.95-0.95h0.85q12.28 14.51 12.28 21.6v9.22q0 11.86-15.99 22.45l-0.95-0.84v-0.96q3.39-1.8 7.41-12.18l-1.8-6.57h-0.95q0 4.88-7.52 10.38l-7.31 14.83h-5.72l-3.71 1.06-10.27-2.75 2.96-4.77q-4.87-6.78-9.53-7.52-7.41 6.04-11.97 13.98l-3.81 1.06q-6.14 0-7.52-8.58l1.06-0.84h0.95v-1.91h-0.95l0.95-15.78v-14.09q0-1.69 8.27-4.66 0-2.75 1.9-2.75h0.95v0.95l-0.95 0.85v0.95l0.95-0.95h1.81v0.95l-1.81 2.97v2.75q4.24 8.9 18.65 21.5l4.76-1.06h3.6l4.77 2.76 0.85-0.96h1.06l0.84 0.96h0.85q6.46 0 15.89-12.08l-1.8-1.91 0.95-0.84v-1.06q-3.28-11.12-11.23-11.12v-1.91h1.8v-1.8h-1.8l-3.81 2.75-0.85-0.95v-0.95l2.76-2.76-2.76-0.95-0.84 0.95h-2.97l-5.4-2.86q0 2.23-4.77 5.62l-15.04-2.76-2.75 2.76h-0.95q-12.18-15.04-12.18-18.54l-0.75-8.37v-7.52q3.71-5.61 19.49-18.74 0-1.7 4.77-1.91zm20.55 42.9v-1.8h2.75v1.8zm76.47-78.38h1.8v1.06l0.85-1.06h1.9q0 2.86 2.76 2.86v2.75l1.06-0.84h0.84l1.81 1.69v1.06l-0.96-1.06h-1.69v1.06l-1.06 24.25 6.46 7.52q5.08-4.02 15.99-4.76l1.91 3.81 2.75-1.8h1.91q2.75 0 4.55 9.22 0 4.76-6.46 8.36l-18.64-2.86h-2.01l-7.31 7.63v45.65q0 6.04 11.12 14.93h4.77q10.38-5.93 10.38-20.55l0.85-0.84h0.84l-0.84-0.96v-1.06l0.84-0.84-0.84-0.85v-1.06l3.6-4.77h2.86l0.84 1.06 1.06-1.06h0.85q4.66 2.23 4.66 9.54v3.6q0 26.69-22.35 32.73v-0.96l-5.51 2.02h-4.76q-23.3-9.01-23.3-19.81-2.33 0-2.86-18.54v-17.79l0.95-0.95v-0.96l0.95 0.96h1.91l-1.91-5.51v-15.04q-3.92 0-5.61-5.61h-5.51l-7.62-1.7h-3.6l-2.86 1.7q-3.61-1.49-3.61-6.46v-1.06q5.19-10.17 24.15-10.17l7.42-6.57-0.85-4.66q0-23.3 7.52-23.3z"/>
</svg>