<svg version="1.2" xmlns="http://www.w3.org/2000/svg" width="1280" height="260" viewBox="0 0 1280 260"><defs><linearGradient id="P" gradientUnits="userSpaceOnUse"/><linearGradient id="g1" x2="1" href="#P" gradientTransform="matrix(1197.64,-163.2,38.718,284.128,41,226.082)"><stop stop-color="#866ee7"/><stop offset=".25" stop-color="#ea60da"/><stop offset=".5" stop-color="#ed8f57"/><stop offset=".75" stop-color="#fbd41d"/><stop offset="1" stop-color="#2cca91"/></linearGradient></defs><style>.a{fill:url(#g1)}</style><path class="a" d="m73.2 63l2.6 2.6 4.6-1.7q6.5 3.6 9.8 3.6l10.7-2.7h5.3v1.7l2.7-1.7h1l6.4 4.3v1.8l-1-0.8h-1.9l1 4.5q-3.1 6.2-9.8 6.2h-13.5l-5.4 7.2-1.8 21.5v58.1q4.8 0 6.3 6.4l0.9-0.9h1l5.3 3.5q24.1-3.2 24.1-6.3l4.6-5.4h3.5l0.8 1 3.7-1.8-1.8-5.3 2.6-1-0.8-2.7h-2.7l-2.6 1.8h-1.9v-0.9q0.2-4.4 1.9-4.4l-1.9-6.3q0-7.3 8.9-10.7v0.8l0.9-0.8h1.9q1.3 0 3.5 7.1l-0.9 3.6 0.9 3.6-0.9 5.3 0.9 4.6-0.9 0.8v1l0.9 0.9v0.8l-0.9 4.4 0.9 2.7-0.9 0.9 0.9 6.3v6.4q-3.5 2.9-3.5 6.1-3.5 2.7-8.2 2.7h-46.5l-2.6-2.7q1.2 0 2.6-3.5h-1.8v-0.9l-4.4 1.7-1.9-1.7-4.4 3.6-0.9-1-0.8 1h-14.4q0 2.6-1.8 2.6h-1.9q-9.8 0-9.8-7.9v-4.6l1-1-1-0.8v-0.9q0-2.4 9-3.5h4.5l5.4 4.4h1.7q6-3.8 8.1-11.7l2.7-0.8v-0.9l-1.8-5.4q-2.7 0-2.7-1.8v-34.8l-0.8-12.7q1.8-4.4 1.8-16v-4.5q-3.8 0-5.5-5.4h-11.6q-11.6 0-11.6-8v-1.8q6.6-7.2 11.6-7.2l0.9 0.9h0.9l2.8-0.9q0 2.7 3.5 2.7l0.8 2.6h0.9v-0.8l-0.9-2.6 2.7-1.9 1.8 1.9q0-2.1 7.2-4.5zm64.4 94.8h-1.8v2.8l1.8-1.8zm66.8-63.2l1.7-2q0.2 2.7 21.6 22.5v0.8q-2 0-2 4.7l-2.7 1 1 4.7q0 1.9-2.9 1.9v0.8l1.9 2q0-2.2 3.8-3.8 2.7 0.6 2.7 7.6v1.8l-0.8 0.9 0.8 0.9v0.9q0 2.8-9.3 4.7h-17.7l-34.7 1q0 2.5-4.6 5.6l-0.9 3.8v0.9q5.2 4.3 7.4 10.3l14.2 11.2-1.1 0.8h10.3q4.3 0 10.2-6.4l16.9-15.9q8.5 0 8.5 7.4 0 7.4-12.3 20.7-13.2 7.4-26.2 8.4l-0.8-1v-0.9l-0.9 0.9h-3l-1.6-1.9 0.8-0.8q-4.6 0-4.6-2l0.8-0.9-1.8-2.9q-7.3 0-11.3 3.8l-11.2-9.3 3.7-4.7q-3.7 0-3.7-6.5h0.9l-0.9-1.1v-0.8l0.9-1v-0.9h-0.9l-2.8 1.9q-4.6 0-4.6-18.7 0-22.4 3.6-22.4l-0.8-2.9q0-3.8 4.6-3.8 0-7.4 19.7-19.6l10.3-2.8q10.6 0 14 3.8l2.7-3.8zm-39.3 31.7q0.3 3.3 7.6 7.6l0.8-1h30.9l1 1q5.5-3.6 8.3-8.5-7.5-14.9-20.5-14.9h-8.4q-12.1 0-19.7 15.8zm57.1 25.4h0.9l0.9 0.8v1l-0.9 0.9h-0.9l-0.9-0.9v-1zm4.6 2h0.9l4.7 5.6-1 0.9h-0.8l-4.8-5.5zm-65.4 10.1l-2.9 1v1l3.8 3.7h1l0.8-2.7q-2.7 0-2.7-3zm104.1-61.1l4.4-2.6h10.6l3.3 2.6 8.9-2.6q0.1 1.7 8.7 7.8 4.4 5.9 4.4 8.7v1.8l-3.5 5.2 1.7 2.6-1 3.5q1.9 0 1.9 2.6h1.7v-3.5h1.9l-1 30.6v10.4q0 4.9 5.2 8l6.2-6.1-1-3.5q4.5-6.2 9.7-6.2l2.7 7-1.9 8.8-3.4-1.8-0.8 0.9h-1l-2.6-0.9q-2.5 4.4-5.3 4.4v1.7l1.8 1.8-0.8 3.5-1-0.8-0.8 0.8h-0.8l-1.9-1.8-6 2.6h-4.4q-5.4-5.2-7.9-5.2l-17.5 9.6-1.6-3.4 1.6-5.3q-3.5 0.8-3.5 3.5l-0.8-0.8q-6.5 1-10.4 6h-5.4q-8.8 0-16.6-14.8-1.7-3.5-1.7-9.6v-8.8l1.7-1.7v1.7h1.8l-2.6-3.5q8.2-12.9 17.4-15.7-2.5-5.1-13-8.7l-1.8-4.4-0.9 0.8h-0.9l-0.8-0.8v-0.9h1.7v-6.2q0-8 10.5-15.6h0.9l2.6 1.7q0-2.2 8.7-4.3h1.8zm-3.5 25.3v0.8l5.2 5.2-1.7 1.8h0.8l14.1-0.8 2.6 1.6q9.5 0 9.5-6h1l0.8 0.8h0.8l1-0.8v-1.8q-1.8 0-1.8-4.3-6.9-9.7-12.3-9.7h-11.3q-8.7 5.8-8.7 13.2zm38.3 2.6h-1.6l0.9 0.8v1.8h-2.7v2.6h1.8l1.6-3.4zm-36.6 6l-5.3-5.3-0.8 0.9v1q3.9 3.4 6.1 3.4zm-18.4 28.8h1q1.6 0 8.7 8.7l5.2 3.6h0.9l7-1.8h5.2l2.6 1.8h1.9q12.8-7 15.7-15.9l-1-0.7v-0.9l1-5.2v-0.9q-2.9 0-5.3-4.4v-0.8h0.9l4.4 3.4v-0.8q-1-3-3.6-3.6l-34.1 5.2q-10.5 8.4-10.5 12.3zm80.4 18.3v0.9q-7 8.7-10.4 8.7l-1-0.8v-0.8q9.6-8 11.4-8zm76.5-88.1h0.9l10.8 1.7 1.8-1.7q0 2.7 11.7 12.6v0.8h-1.8l0.9 0.9v6.4q0 11.8-8.1 16.2h-7.2l-7.2-7.2-0.9 0.9v-0.9l0.9-1v-0.8q0-4.1-6.5-9.9v-0.9h-0.8q-20.8 16.1-20.8 31.6l-0.9 5.3-1-0.8h-0.8l-3.6 0.8q-7.2 0-7.2-6.3v-5.4q0-22.5-6.3-22.5 0-1.8-2.8-1.8l-2.6 0.8q-15.4 0-15.4-8 0-7 11.7-8.1h10.9l0.9 0.9h0.8l2.8-2.8h1.7l3.7 2.8 0.9-0.9v-1l12.5 10.9h1zm-35.3 15.3h-1.8l0.9 5.3h0.9l0.9-4.5zm-5.4 3.7h-1.7v0.8q1.8 3.7 4.4 3.7h0.9v-1q-3.6 0-3.6-3.5zm10 0.8l-1.8 1.9v1.8l1.8-1.8zm-2.8 40.6v-1.8h1.9q0 3.1 6.3 3.6 0 11.4 6.2 16.4v0.8l4.6-0.8h7.2l0.9 0.8h0.9v-0.8l-0.9-1v-0.8h0.9l1.9 1.8-1 0.8v0.8q4.6 0.4 4.6 2.8l-1 0.9v0.9h2v0.9q0 10-12.8 10h-20.7l-16.2 0.9-9.9-0.9-1 0.9q-4.6-5-4.6-7.3l-0.9 0.9h-0.8v-0.9l3.6-6.3v0.9q3.9-0.9 7.2-6.3 4 0 8.2 3.5h0.8q1.6-5.3 5.4-5.3v-3.6q0-10.9 6.4-10.9h1.8zm-7.2 17.3l-2.7 2.5 2.7-0.9zm128-77.1q26 2.9 26 22.4l-0.8 16.1v1.8l0.8 3.7-0.8 3.5v7.2l0.8 3.5-0.8 3.7v8h-1.9l-0.9-2.7-2.7 0.9v0.9q3.4 5.9 7.1 7.3h1v-1q-2.6 0-2.6-1.9v-0.8h0.8l11.7 9.9v5.3l-2.7 3.6 1.8 1.9-1 0.8h-1.8l-0.8-0.8h-0.9l-1.8 1.7h-4.5l-27-0.9-1.6-2.7 8.8-7.9h3.7l4.4 0.7q3.6-4.7 3.6-7.9l-2.6-4.6 1.6-3.6-0.8-2.6-1.8 1.7h1.8q0 1.8-5.3 2.7l0.8-0.9v-22.4l-0.8-5.4 2.7-8.1-2.7-2.6v-0.9q0-1.8 2.7-1.8-3.9-9.1-9.1-9.1h-8.9q-18.2 11.9-25.2 31.4v11.8l-0.8 13.4 7.2 5.3 1.8-1.7v1.7h0.9l2.6-0.8 1.8 4.4 0.8-0.7h1l0.9 0.7v0.9q-2.2 0-2.7 4.6-2.4 0-8 5.3l-1-0.9-0.9 0.9h-3.6q-28.6 0-28.6-5.3v-4.6l13.4-12.5q0-15.2 4.5-15.2l-3.5-4.6v-20.6l1.7-2.6q-1.7-6.2-13.4-14.4l-2.7-4.4v-0.9l1.7-2.7-1.7-1.9 4.6-3.6 2.6 1.8 0.8-0.8h0.9l7.2 0.8 2.8-0.8q8.9 0 10.7 12.5l4.5 2.7h0.9q3-1.2 8.9-10.7 5.7-2.4 6.3-4.5l4.5 0.8h1q1.3 0 2.6-3.5zm-61 9.9h0.8l0.9 0.9v0.8l-0.9 1h-0.8l-0.9-1v-0.8zm0 3.5h0.9l8 9-1 0.8h-0.7l-8.1-8.9zm-0.9 78.1v-1h0.9l5.4 5.4-0.9 1h-1zm139.7-124h0.9q12.4 3.7 12.4 12.5v4.5q0 4.7-7.2 9.8h-8.7l-7.2-6.3q-3.5 0-3.5-1.7l0.8-0.9h0.9l1.8 1.7v-0.8l-0.9-5.5q0-1.8 10.7-13.3zm-13.3 35.6l4.3 2.7 6.4-1.7v1.7q-3.6 0.5-3.6 2.8v1.6h0.9l2.7-0.8 0.8 2.7 11.6-5.3 1.9 8-1 4.5v39.2l-1.8 1.7-3.6-1.7v0.9l1.8 2.7q-3.6 2-3.6 5.2l-0.8-0.8h-0.9l1.7-6.3h-0.8l-5.3 3.6-0.9-0.9v-4.4l0.9-2.8-0.9-4.3v-29.5q0-1.8-2.7-1.8l-1-0.8v-0.9l1-1q-3.6 0-3.6-3.5-6.5 0-16 7.2l-1-1q-4.5-4.7-4.5-8l2.9-1.9-1-0.8v-0.8q6.8-5.5 16.1-5.5zm10.7 69.6l12.4-8.9 0.9 0.9v8q0 5 6.3 7.1v1l0.8-1h2.7l0.9 1 2.7-1 7.2 1 2.6-2.6 0.9 0.8v0.8l-4.5 5.4v2.6l2.6-1.7 1.9 1.7q-2.1 0-4.5 2.7l-3.5-1.7-12.5 2.7q0 3.5-5.4 3.5v0.9l-10.7-0.9h-18.7l-3.6 0.9q-8-0.5-8-3.5l0.8-2.7h-0.8l-1.8-1.9q0-10.6 9.8-10.6l2.6 3.6 1-1h8l0.9 1h0.9q0-1.8 4.5-1.8l1.7-8.2h1.9zm-34.9 19.7v-0.8h0.9l5.3 5.3v0.9h-0.8zm135.1-92.4q26.1 2.9 26.1 22.4l-0.9 16.2v1.7l0.9 3.7-0.9 3.5v7.2l0.9 3.6-0.9 3.6v8h-1.7l-1-2.7-2.7 1v0.9q3.3 5.8 7.2 7.1h0.8v-0.8q-2.6 0-2.6-1.9v-0.8h0.9l11.6 9.9v5.3l-2.7 3.6 1.8 1.8-0.8 0.8h-1.9l-0.7-0.8h-1l-1.7 1.8h-4.6l-26.9-1-1.8-2.6 9-8.1h3.6l4.4 0.8q3.5-4.7 3.5-8l-2.6-4.5 1.7-3.5-0.9-2.6-1.7 1.6h1.7q0 1.9-5.3 2.7l1-0.8v-22.4l-1-5.4 2.8-8.2-2.8-2.6v-0.9q0-1.8 2.8-1.8-3.9-9.1-9.1-9.1h-8.9q-18.1 12-25.2 31.4v11.8l-0.8 13.5 7.1 5.3 1.9-1.7v1.7h0.9l2.6-0.8 1.7 4.3 1-0.8h0.9l0.8 0.8v1q-2.2 0-2.7 4.6-2.3 0-7.9 5.3l-0.9-1-1 1h-3.6q-28.7 0-28.7-5.3v-4.6l13.6-12.5q0-15.3 4.3-15.3l-3.5-4.6v-20.6l1.8-2.6q-1.8-6.1-13.4-14.4l-2.8-4.4v-0.9l1.9-2.7-1.9-1.9 4.6-3.5 2.6 1.7 0.8-0.8h1l7.2 0.8 2.7-0.8q9 0 10.7 12.5l4.6 2.6h0.8q3.1-1.1 9-10.6 5.7-2.4 6.3-4.5l4.6 0.8h0.8q1.3 0 2.6-3.5zm-61 9.9h0.9l1 0.9v0.9l-1 0.9h-0.9l-0.8-0.9v-0.9zm0 3.6h0.8l8.1 8.9-0.9 1h-0.8l-8.2-9.1zm-0.8 78.1v-0.9h0.8l5.5 5.4-1 0.9h-0.8zm136.1-83.1l6.3-6.4h2.7q7.5 0 10.7 5.4l1-0.8h1.7q2.6 0 2.6 3.5 7.1-0.9 12.5-8.1h7.3q14.8 0 17.9 17.9-1.8 9.9-3.7 9.9l-1.8-1.7-0.8 0.8h-0.9l-0.9-0.8h-0.9l-2.7 0.8v-2.7l-1 0.9h-0.8l-0.8-0.9h-1v0.9l1 2.7-1 1h-0.8l-2.7-2.7h-0.9l0.9 0.8v1.9l-3.7 4.3v3.7q0 25.6-21.4 30.3l0.9 1v0.8l-2.7 3.5h1.8l1.9 2.7 2.6-0.9 0.9 0.9v1l0.8-1h1q4.4 0.7 4.4 4.6l6.3 1.7 0.8-0.8 3.7 0.8 7.2-1.7q11.5 9 11.5 17.8v3.7q-9.5 6.5-16.9 15.1h-1l2.8 5.3q-6.3 6.4-23.3 6.4h-6.3q-16.6 0-20.5-2.9l1.8-3.5q-4.5 0-4.5-1.8h-2.7q0 2.8-2.7 2.8-16.9-4.9-16.9-19.7v-5.4q1.8-1.8 1.8-8 3.5-2 3.5-4.6l-3.5-12.5v-6.1q0-4.6 9.8-14.4v-3.5l-1.8-9.8v-3.7q0-17.3 7.1-22.3 5.3-3.8 13.4-6.2zm-9.8 29.5q0 12.1 17.8 22.2 13.7 0 19.7-11.5l-0.9-4.5q0-6.2 4.6-6.2v-3.7q-2.5 0-10.7-11.7l-7.2-2.6h-5.5q-12.1 0-17.8 18zm50-13.5h-1.7v3.7h0.8zm-46.4 40.2l-8.9 8.1v1.7q2 4.1 6.2 6.2h2.7q7 0 13.4-8.8l-1-2.7 1-1-7.2 1-6.2-1.9v-0.8l1-1v-0.8zm-9.9 36.7v1.7l13.4 11.6-0.9 0.9v0.9q2.6 0 2.6 2.7h2.7l1.9-3.6-1-2.5 1-1h0.9l0.8 1 0.9-1h0.9l3.5 2.6h13.5q17.9 0 24.2-10.7-4.6-13.4-30.5-13.4h-16.1q-15.5 0-17.8 10.8zm138-134.6h19.1l1.8 1.7-0.9 1h2.8l15.3-1.8 21.6 1.8 0.9-1h1q26 6.9 26 23.6v1.8h-1.7l-2.6-0.8-4.6 0.8h-4.5q-9.1-10-28.9-10h-11.8q-1.2 5.5-6.3 5.5v12.6l-4.4-0.8 0.8 0.8-0.8 4.5v2.7l3.5-2.7 0.9 1h0.9l-0.9 0.9v2.7l0.9 3.6-0.9 3.6 7.2 5.3 7.2-0.8 17.3 0.8q7.7 0 16.2-12.5l-0.9-3.6 0.9-1-0.9-0.9v-0.8l3.5-3.6 1 0.8h0.9q1.2-6.3 2.7-6.3l1 0.9-1 1v3.6h1.8v0.8l3.5-1.7 1 0.9v6.3q0 12.9-14.4 25.3l3.5 10.9-0.8 0.8-0.9-0.8h-0.9l-14.5 1.8q-2.7-7.4-10.8-7.4h-16.3q-1.2 5.6-6.3 5.6l0.9 3.5-0.9 7.2 0.9 7.2-0.9 9.1q0 5.1 16.2 9.1 4.6 2.9 4.6 7.2v2.7q-3.2 6.4-16.3 6.4l-19.9-1v-0.9q2.6-4.5 5.4-4.5l-5.4-7.2-2.7 0.8 3.6 4.6v1l-3.6 0.8-2.7-2.7-4.5 4.5 2.7 0.9v1.8h-1q-8.9-2.7-8.9-9v-1.9q0-5.2 14.4-9.9 0-1.8 3.6-1.8l0.9 0.9v-10.9h1.8v1.9h1.8l-3.6-13.6-0.9-27.1 1.8-1.8-1.8-2.7v-7.2q0-1.9 5.5-1.9l0.9-4.4v-1.8q0-1.5-6.4-2.7v-9.1q-7.8-9.1-15.3-9.1l-1-0.9v-1.8q0-12.6 3.6-12.6zm76 84.9l0.9 1h0.8l2.9-1 2.7 9.1-2.7 2.7 0.8 0.9v0.9l-0.8 0.8v0.9q10 11 15.2 11l7.3 6.3h-1.8v5.4q-1.8 6.4-9.1 6.4h-9.9q-12.6 0-12.6-10.9v-0.9q5.7-2.4 6.3-4.5l-1.8-5.6 0.9-0.8v-0.9h-1.7l-2.9 1.7-4.5-18v-1.8q0-2.7 10-2.7zm64.6-56h0.9l5.6 6.3-1 1.1h-0.9l-5.4-6.5zm-4.7 5.4l4.7-0.8q2.7 3.6 2.7 8.3v14.7l-1 2.9 1 4.6v5.4q0 41.5 7.3 41.5l3.7 2.7h4.6q10.1 0 24-22.2v1.1l2.7-1.1-0.9-15.4v-2l0.9-5.6-0.9-3.6 0.9-0.8h1q0-11.8-6.5-15.7l-4.6-1q0-1.4-6.4-3.6v-3.7l6.4-5.7 4.6 1h8.2l4.6-1 1 1 1.9-1.8q2.7 0 3.5 12.9v60.7q0 2.4 10.3 5.6l2.7 3.7v1q-1.9 3.7-4.6 3.7l1.9 2.7-1 0.9-0.9-0.9h-2.7v1.7q2.7 0 2.7 2v1h-1.8l-2.8-2-2.7 2-8.3-1-2.8 1v-1l0.9-1v-1q-3 0-8.3-7.3l-0.9-0.8h-0.9q-12.2 11.9-22.1 11.9h-6.5q-12.2 0-20.2-15.7l-0.9-0.9 0.9-0.9v-0.9q-3.8 0-4.5-19.5v-5.4q0-7.3 5.4-7.3v-1.9l-4.6-5.4 1.9-9.3q0-7.7-5.6-12.9l1-0.9v-1q-5.6 0-7.3-3.6-2.9 0-2.9-1.9l1.8-2.7-0.9-1q2.8 0 6.6-3.8zm-25 8.4h0.9l5.7 6.5-1.1 1h-0.8l-5.6-6.5zm8.3 7.3h0.9l1 0.9v1l-1 0.8h-0.9l-0.8-0.8v-1zm59.8 2.7l-1.9-2.7h1.9l1.7 1.8-0.8 0.9zm-2.8-1.7h0.9l1 0.8v0.9l-1 1.1h-0.9l-0.8-1.1v-0.9zm106.2-16.8h1l5.2 6.3-0.8 0.8h-0.9l-5.3-6.1zm-41.4 0.8h2.6q23 2.4 23.7 7.9h3.6q0-3.6 5.3-6.1h0.8l2.6 1.8 0.9-0.9v-0.9q3.6 0.9 3.6 5.3v9.8l0.9 4.3q-2.5 0-4.5 6.2l-6.1 7.1-0.9-1-0.9 1q-6.6-18.6-22.9-18.6h-7q-4.8 0-11.5 8.9l0.9 2.6-1.8 1.7q3.8 1.9 7.1 7.1l21.2 4.3-1 0.9v2.7l1.8 1.8h1.8l4.4-0.9v1.7l4.3-0.8 1 0.8v1l8-1.8-3.6-4.5 0.9-0.9h0.8q11.6 13.7 11.6 20.4v8.7q0 11.2-15.1 21.2l-0.9-0.8v-0.9q3.2-1.7 7-11.5l-1.7-6.2h-0.9q0 4.6-7.1 9.8l-6.9 14h-5.4l-3.5 1-9.7-2.6 2.8-4.5q-4.6-6.4-9-7.1-7 5.7-11.3 13.2l-3.6 1q-5.8 0-7.1-8.1l1-0.8h0.9v-1.8h-0.9l0.9-14.9v-13.3q0-1.6 7.8-4.4 0-2.6 1.8-2.6h0.9v0.9l-0.9 0.8v0.9l0.9-0.9h1.7v0.9l-1.7 2.8v2.6q4 8.4 17.6 20.3l4.5-1h3.4l4.5 2.6 0.8-0.9h1l0.8 0.9h0.8q6.1 0 15-11.4l-1.7-1.8 0.9-0.8v-1q-3.1-10.5-10.6-10.5v-1.8h1.7v-1.7h-1.7l-3.6 2.6-0.8-0.9v-0.9l2.6-2.6-2.6-0.9-0.8 0.9h-2.8l-5.1-2.7q0 2.1-4.5 5.3l-14.2-2.6-2.6 2.6h-0.9q-11.5-14.2-11.5-17.5l-0.7-7.9v-7.1q3.5-5.3 18.4-17.7 0-1.6 4.5-1.8zm19.4 40.5v-1.7h2.6v1.7zm72.2-74h1.7v1l0.8-1h1.8q0 2.7 2.6 2.7v2.6l1-0.8h0.8l1.7 1.6v1l-0.9-1h-1.6v1l-1 22.9 6.1 7.1q4.8-3.8 15.1-4.5l1.8 3.6 2.6-1.7h1.8q2.6 0 4.3 8.7 0 4.5-6.1 7.9l-17.6-2.7h-1.9l-6.9 7.2v43.1q0 5.7 10.5 14.1h4.5q9.8-5.6 9.8-19.4l0.8-0.8h0.8l-0.8-0.9v-1l0.8-0.8-0.8-0.8v-1l3.4-4.5h2.7l0.8 1 1-1h0.8q4.4 2.1 4.4 9v3.4q0 25.2-21.1 30.9v-0.9l-5.2 1.9h-4.5q-22-8.5-22-18.7-2.2 0-2.7-17.5v-16.8l0.9-0.9v-0.9l0.9 0.9h1.8l-1.8-5.2v-14.2q-3.7 0-5.3-5.3h-5.2l-7.2-1.6h-3.4l-2.7 1.6q-3.4-1.4-3.4-6.1v-1q4.9-9.6 22.8-9.6l7-6.2-0.8-4.4q0-22 7.1-22z"/></svg>