<svg version="1.2" xmlns="http://www.w3.org/2000/svg" viewBox="0 0 1117 260" width="1117" height="260"><defs><linearGradient id="P" gradientUnits="userSpaceOnUse"/><linearGradient id="g1" x2="1" href="#P" gradientTransform="matrix(1015.271,-138.349,32.807,240.75,50,232.349)"><stop stop-color="#866ee7"/><stop offset=".25" stop-color="#ea60da"/><stop offset=".5" stop-color="#ed8f57"/><stop offset=".75" stop-color="#fbd41d"/><stop offset="1" stop-color="#2cca91"/></linearGradient></defs><style>.a{fill:url(#g1)}</style><path class="a" d="m77.3 94.1l2.2 2.2 3.9-1.4q5.5 3 8.3 3l9.1-2.3h4.5v1.5l2.3-1.5h0.8l5.4 3.7v1.5l-0.8-0.7h-1.6l0.8 3.8q-2.6 5.3-8.3 5.3h-11.4l-4.6 6.1-1.5 18.2v49.3q4 0 5.3 5.4l0.8-0.8h0.8l4.5 3q20.4-2.7 20.4-5.3l3.9-4.6h3l0.7 0.8 3.1-1.5-1.5-4.5 2.2-0.8-0.7-2.3h-2.3l-2.2 1.5h-1.6v-0.8q0.2-3.7 1.6-3.7l-1.6-5.3q0-6.2 7.6-9.1v0.7l0.7-0.7h1.6q1.1 0 3 6l-0.8 3.1 0.8 3-0.8 4.5 0.8 3.9-0.8 0.7v0.8l0.8 0.8v0.7l-0.8 3.7 0.8 2.3-0.8 0.8 0.8 5.3v5.4q-3 2.5-3 5.2-2.9 2.3-6.9 2.3h-39.4l-2.2-2.3q1 0 2.2-3h-1.6v-0.7l-3.7 1.4-1.6-1.4-3.7 3-0.8-0.8-0.7 0.8h-12.2q0 2.2-1.5 2.2h-1.6q-8.3 0-8.3-6.7v-3.9l0.8-0.8-0.8-0.7v-0.8q0-2 7.6-2.9h3.8l4.6 3.7h1.4q5.1-3.2 6.9-9.9l2.3-0.7v-0.8l-1.5-4.5q-2.3 0-2.3-1.6v-29.5l-0.7-10.7q1.5-3.8 1.5-13.6v-3.8q-3.2 0-4.6-4.6h-9.9q-9.8 0-9.8-6.8v-1.5q5.6-6.1 9.8-6.1l0.8 0.8h0.8l2.3-0.8q0 2.3 3 2.3l0.7 2.2h0.7v-0.7l-0.7-2.2 2.3-1.6 1.5 1.6q0-1.8 6.1-3.8zm54.6 80.4h-1.5v2.3l1.5-1.5zm56.6-53.6l1.5-1.7q0.1 2.3 18.3 19.1v0.7q-1.7 0-1.7 4l-2.3 0.8 0.8 4q0 1.6-2.4 1.6v0.7l1.6 1.7q0-1.9 3.2-3.2 2.3 0.5 2.3 6.4v1.5l-0.7 0.8 0.7 0.8v0.7q0 2.4-7.9 4h-15l-29.4 0.9q0 2.1-3.9 4.7l-0.8 3.2v0.8q4.4 3.6 6.3 8.7l12 9.5-0.9 0.7h8.7q3.7 0 8.7-5.4l14.3-13.5q7.2 0 7.2 6.3 0 6.2-10.4 17.5-11.2 6.3-22.2 7.1l-0.7-0.8v-0.8l-0.8 0.8h-2.5l-1.4-1.6 0.7-0.7q-3.9 0-3.9-1.7l0.7-0.8-1.5-2.4q-6.2 0-9.6 3.2l-9.5-7.9 3.1-4q-3.1 0-3.1-5.5h0.8l-0.8-0.9v-0.7l0.8-0.8v-0.8h-0.8l-2.4 1.6q-3.9 0-3.9-15.8 0-19 3.1-19l-0.7-2.5q0-3.2 3.9-3.2 0-6.3 16.7-16.6l8.7-2.4q9 0 11.9 3.2l2.3-3.2zm-33.3 26.9q0.2 2.8 6.4 6.4l0.7-0.8h26.2l0.8 0.8q4.7-3 7.1-7.2-6.4-12.6-17.4-12.6h-7.1q-10.3 0-16.7 13.4zm48.4 21.5h0.7l0.8 0.7v0.8l-0.8 0.8h-0.7l-0.8-0.8v-0.8zm3.9 1.7h0.8l4 4.7-0.9 0.8h-0.7l-4-4.7zm-55.5 8.6l-2.4 0.8v0.9l3.2 3.1h0.8l0.7-2.3q-2.3 0-2.3-2.5zm88.3-51.8l3.7-2.2h9l2.8 2.2 7.5-2.2q0.1 1.4 7.4 6.6 3.7 5 3.7 7.4v1.5l-2.9 4.4 1.4 2.2-0.8 3q1.6 0 1.6 2.2h1.4v-3h1.6l-0.8 26v8.8q0 4.1 4.4 6.8l5.2-5.2-0.8-3q3.8-5.2 8.2-5.2l2.3 5.9-1.6 7.5-2.9-1.6-0.7 0.8h-0.8l-2.2-0.8q-2.1 3.8-4.5 3.8v1.4l1.5 1.5-0.7 3-0.8-0.7-0.7 0.7h-0.7l-1.6-1.5-5.1 2.2h-3.7q-4.6-4.4-6.7-4.4l-14.8 8.1-1.4-2.9 1.4-4.5q-3 0.7-3 3l-0.7-0.7q-5.5 0.9-8.8 5.1h-4.6q-7.4 0-14-12.5-1.5-3-1.5-8.2v-7.4l1.5-1.5v1.5h1.5l-2.2-3q6.9-10.9 14.7-13.3-2.1-4.3-11-7.4l-1.5-3.7-0.8 0.7h-0.7l-0.7-0.7v-0.8h1.4v-5.2q0-6.8 8.9-13.3h0.8l2.2 1.5q0-1.9 7.4-3.7h1.5zm-3 21.5v0.7l4.4 4.4-1.4 1.5h0.7l11.9-0.7 2.2 1.4q8.1 0 8.1-5.1h0.8l0.7 0.7h0.7l0.8-0.7v-1.5q-1.5 0-1.5-3.7-5.8-8.2-10.4-8.2h-9.6q-7.4 4.9-7.4 11.2zm32.5 2.2h-1.4l0.8 0.7v1.5h-2.3v2.2h1.5l1.4-2.9zm-31 5.1l-4.5-4.5-0.7 0.8v0.8q3.3 2.9 5.2 2.9zm-15.6 24.4h0.8q1.4 0 7.4 7.4l4.4 3h0.8l5.9-1.5h4.4l2.2 1.5h1.6q10.9-5.9 13.3-13.4l-0.8-0.6v-0.8l0.8-4.4v-0.8q-2.4 0-4.5-3.7v-0.7h0.8l3.7 2.9v-0.7q-0.8-2.5-3-3l-28.9 4.4q-8.9 7.1-8.9 10.4zm68.1 15.5v0.8q-5.9 7.4-8.8 7.4l-0.8-0.7v-0.7q8.1-6.8 9.6-6.8zm64.9-74.7h0.7l9.2 1.5 1.5-1.5q0 2.3 9.9 10.7v0.7h-1.5l0.8 0.8v5.4q0 10-6.9 13.7h-6.1l-6.1-6.1-0.8 0.8v-0.8l0.8-0.8v-0.7q0-3.5-5.5-8.4v-0.8h-0.7q-17.6 13.7-17.6 26.8l-0.8 4.5-0.8-0.7h-0.7l-3.1 0.7q-6.1 0-6.1-5.3v-4.6q0-19.1-5.3-19.1 0-1.5-2.4-1.5l-2.2 0.7q-13 0-13-6.8 0-5.9 9.9-6.9h9.2l0.8 0.8h0.7l2.3-2.4h1.5l3.1 2.4 0.8-0.8v-0.8l10.6 9.2h0.8zm-29.9 13h-1.5l0.7 4.5h0.8l0.8-3.8zm-4.6 3.1h-1.5v0.7q1.6 3.1 3.8 3.1h0.7v-0.8q-3 0-3-3zm8.5 0.7l-1.6 1.6v1.5l1.6-1.5zm-2.4 34.4v-1.5h1.6q0 2.6 5.3 3 0 9.7 5.3 13.9v0.7l3.9-0.7h6.1l0.8 0.7h0.7v-0.7l-0.7-0.8v-0.7h0.7l1.6 1.5-0.8 0.7v0.7q3.9 0.3 3.9 2.4l-0.9 0.7v0.8h1.7v0.8q0 8.4-10.8 8.4h-17.6l-13.7 0.8-8.4-0.8-0.8 0.8q-3.9-4.2-3.9-6.2l-0.8 0.8h-0.7v-0.8l3.1-5.3v0.7q3.3-0.7 6.1-5.3 3.4 0 6.9 3h0.7q1.4-4.5 4.6-4.5v-3.1q0-9.2 5.4-9.2h1.5zm-6.1 14.6l-2.3 2.2 2.3-0.8zm108.5-65.4q22.1 2.5 22.1 19l-0.7 13.7v1.5l0.7 3.1-0.7 3v6.1l0.7 3-0.7 3.1v6.8h-1.6l-0.8-2.3-2.3 0.8v0.7q2.9 5 6.1 6.2h0.8v-0.8q-2.2 0-2.2-1.6v-0.7h0.7l9.9 8.4v4.5l-2.3 3 1.5 1.6-0.8 0.7h-1.5l-0.7-0.7h-0.8l-1.5 1.5h-3.8l-22.9-0.8-1.4-2.3 7.5-6.7h3.1l3.8 0.6q3-4 3-6.7l-2.2-3.9 1.4-3-0.7-2.2-1.5 1.4h1.5q0 1.5-4.5 2.3l0.7-0.8v-19l-0.7-4.5 2.3-6.9-2.3-2.2v-0.8q0-1.5 2.3-1.5-3.3-7.7-7.7-7.7h-7.6q-15.4 10.1-21.3 26.6v10l-0.7 11.4 6.1 4.5 1.5-1.5v1.5h0.8l2.2-0.7 1.5 3.7 0.7-0.6h0.8l0.8 0.6v0.8q-1.9 0-2.3 3.9-2 0-6.8 4.5l-0.8-0.8-0.8 0.8h-3q-24.3 0-24.3-4.5v-3.9l11.4-10.6q0-12.9 3.8-12.9l-3-3.9v-17.5l1.5-2.2q-1.5-5.2-11.4-12.2l-2.3-3.7v-0.8l1.5-2.3-1.5-1.6 3.9-3 2.2 1.5 0.7-0.7h0.8l6.1 0.7 2.3-0.7q7.6 0 9.1 10.6l3.8 2.3h0.8q2.5-1 7.5-9.1 4.9-2 5.4-3.8l3.8 0.7h0.8q1.1 0 2.2-3zm-51.7 8.4h0.7l0.8 0.8v0.7l-0.8 0.8h-0.7l-0.7-0.8v-0.7zm0 3h0.7l6.8 7.6-0.8 0.7h-0.6l-6.9-7.6zm-0.8 66.2v-0.8h0.8l4.6 4.6-0.8 0.8h-0.8zm118.4-105.1h0.8q10.5 3.1 10.5 10.6v3.8q0 4-6.1 8.3h-7.4l-6.1-5.3q-3 0-3-1.5l0.7-0.7h0.8l1.5 1.4v-0.7l-0.8-4.6q0-1.6 9.1-11.3zm-11.3 30.2l3.7 2.3 5.4-1.5v1.5q-3.1 0.4-3.1 2.3v1.4h0.8l2.3-0.7 0.7 2.3 9.8-4.5 1.6 6.8-0.8 3.8v33.2l-1.6 1.5-3-1.5v0.8l1.5 2.3q-3 1.7-3 4.4l-0.7-0.7h-0.8l1.5-5.3h-0.7l-4.5 3-0.8-0.7v-3.8l0.8-2.3-0.8-3.7v-25q0-1.5-2.3-1.5l-0.8-0.7v-0.8l0.8-0.8q-3 0-3-3-5.5 0-13.6 6.1l-0.8-0.8q-3.8-4-3.8-6.8l2.4-1.6-0.8-0.7v-0.7q5.7-4.6 13.6-4.6zm9.1 59l10.5-7.6 0.8 0.8v6.8q0 4.2 5.3 6v0.8l0.7-0.8h2.3l0.7 0.8 2.3-0.8 6.1 0.8 2.2-2.2 0.8 0.7v0.7l-3.8 4.6v2.2l2.2-1.5 1.6 1.5q-1.8 0-3.8 2.3l-3-1.5-10.6 2.3q0 3-4.6 3v0.7l-9-0.7h-15.9l-3 0.7q-6.8-0.4-6.8-2.9l0.7-2.3h-0.7l-1.5-1.6q0-9 8.3-9l2.2 3 0.8-0.8h6.8l0.8 0.8h0.7q0-1.5 3.8-1.5l1.5-6.9h1.6zm-29.6 16.7v-0.7h0.8l4.5 4.5v0.7h-0.7zm114.5-78.3q22.1 2.5 22.1 19l-0.7 13.7v1.5l0.7 3.1-0.7 3v6.1l0.7 3-0.7 3.1v6.8h-1.5l-0.8-2.3-2.3 0.8v0.8q2.8 4.9 6.1 6h0.7v-0.7q-2.2 0-2.2-1.6v-0.7h0.7l9.9 8.4v4.5l-2.3 3.1 1.5 1.5-0.7 0.7h-1.6l-0.6-0.7h-0.8l-1.5 1.5h-3.9l-22.8-0.8-1.5-2.2 7.6-6.9h3.1l3.7 0.7q3-4 3-6.8l-2.2-3.8 1.4-3-0.7-2.2-1.5 1.4h1.5q0 1.6-4.5 2.3l0.8-0.7v-19l-0.8-4.6 2.3-6.9-2.3-2.2v-0.8q0-1.5 2.3-1.5-3.3-7.7-7.7-7.7h-7.5q-15.4 10.1-21.4 26.6v10l-0.7 11.4 6.1 4.5 1.6-1.4v1.4h0.7l2.2-0.7 1.5 3.7 0.8-0.7h0.8l0.7 0.7v0.8q-1.9 0-2.3 3.9-2 0-6.7 4.5l-0.8-0.8-0.8 0.8h-3.1q-24.3 0-24.3-4.5v-3.9l11.5-10.6q0-12.9 3.7-12.9l-3-3.9v-17.5l1.5-2.2q-1.5-5.2-11.3-12.2l-2.4-3.7v-0.8l1.6-2.3-1.6-1.6 3.9-3 2.2 1.5 0.7-0.7h0.8l6.1 0.7 2.3-0.7q7.6 0 9.1 10.6l3.9 2.2h0.7q2.6-0.9 7.6-9 4.8-2 5.3-3.8l3.9 0.7h0.7q1.1 0 2.2-3zm-51.7 8.4h0.8l0.8 0.8v0.7l-0.8 0.8h-0.8l-0.7-0.8v-0.7zm0 3h0.7l6.9 7.6-0.8 0.8h-0.7l-6.9-7.7zm-0.7 66.2v-0.8h0.7l4.6 4.6-0.8 0.8h-0.7zm115.4-70.5l5.3-5.4h2.3q6.4 0 9.1 4.6l0.8-0.7h1.5q2.2 0 2.2 3 6-0.8 10.6-6.9h6.2q12.5 0 15.1 15.2-1.5 8.4-3.1 8.4l-1.5-1.5-0.7 0.7h-0.8l-0.7-0.7h-0.8l-2.3 0.7v-2.3l-0.8 0.8h-0.7l-0.7-0.8h-0.8v0.8l0.8 2.3-0.8 0.8h-0.7l-2.3-2.3h-0.8l0.8 0.7v1.6l-3.1 3.7v3.1q0 21.7-18.2 25.7l0.8 0.8v0.7l-2.3 3h1.5l1.6 2.3 2.2-0.8 0.8 0.8v0.8l0.7-0.8h0.8q3.8 0.6 3.8 3.9l5.3 1.4 0.7-0.7 3.1 0.7 6.1-1.4q9.8 7.6 9.8 15.1v3.1q-8.1 5.5-14.4 12.8h-0.8l2.4 4.5q-5.4 5.4-19.8 5.4h-5.3q-14.1 0-17.4-2.4l1.5-3q-3.8 0-3.8-1.5h-2.3q0 2.3-2.3 2.3-14.3-4.1-14.3-16.7v-4.5q1.5-1.6 1.5-6.8 3-1.7 3-3.9l-3-10.6v-5.2q0-3.9 8.3-12.2v-3l-1.5-8.3v-3.1q0-14.7 6-18.9 4.5-3.2 11.4-5.3zm-8.3 25q0 10.3 15.1 18.9 11.6 0 16.7-9.8l-0.8-3.8q0-5.3 3.9-5.3v-3.1q-2.1 0-9.1-9.9l-6.1-2.2h-4.6q-10.3 0-15.1 15.2zm42.4-11.4h-1.5v3.1h0.7zm-39.3 34.1l-7.6 6.9v1.4q1.7 3.5 5.3 5.3h2.3q5.9 0 11.3-7.5l-0.8-2.3 0.8-0.8-6.1 0.8-5.2-1.6v-0.7l0.8-0.8v-0.7zm-8.4 31.1v1.5l11.4 9.8-0.8 0.8v0.7q2.2 0 2.2 2.3h2.3l1.6-3-0.8-2.2 0.8-0.8h0.8l0.7 0.8 0.7-0.8h0.8l3 2.2h11.4q15.2 0 20.5-9.1-3.9-11.3-25.8-11.3h-13.7q-13.1 0-15.1 9.1zm117-114.1h16.2l1.5 1.5-0.7 0.8h2.3l13-1.5 18.3 1.5 0.8-0.8h0.8q22.1 5.8 22.1 20v1.5h-1.5l-2.2-0.7-3.9 0.7h-3.8q-7.7-8.5-24.5-8.5h-10q-1 4.7-5.3 4.7v10.7l-3.8-0.7 0.7 0.7-0.7 3.8v2.3l3-2.3 0.8 0.8h0.7l-0.7 0.8v2.3l0.7 3-0.7 3.1 6.1 4.5 6.1-0.7 14.6 0.7q6.6 0 13.8-10.6l-0.8-3.1 0.8-0.8-0.8-0.8v-0.7l3-3 0.8 0.7h0.8q1-5.4 2.3-5.4l0.8 0.8-0.8 0.8v3.1h1.5v0.7l3-1.5 0.8 0.8v5.3q0 11-12.2 21.5l3 9.2-0.7 0.7-0.8-0.7h-0.7l-12.3 1.5q-2.3-6.2-9.2-6.2h-13.8q-1 4.7-5.3 4.7l0.7 3-0.7 6.1 0.7 6.1-0.7 7.7q0 4.3 13.7 7.7 3.9 2.5 3.9 6.1v2.3q-2.7 5.4-13.8 5.4l-16.9-0.8v-0.8q2.2-3.8 4.6-3.8l-4.6-6.1-2.3 0.7 3.1 3.9v0.8l-3.1 0.7-2.3-2.3-3.8 3.8 2.3 0.8v1.5h-0.8q-7.6-2.3-7.6-7.6v-1.6q0-4.4 12.2-8.4 0-1.5 3.1-1.5l0.7 0.7v-9.2h1.6v1.6h1.5l-3.1-11.5-0.7-23 1.5-1.5-1.5-2.3v-6.1q0-1.6 4.6-1.6l0.8-3.8v-1.5q0-1.3-5.4-2.3v-7.7q-6.6-7.7-13-7.7l-0.8-0.8v-1.5q0-10.7 3-10.7zm64.4 72l0.8 0.8h0.7l2.4-0.8 2.3 7.7-2.3 2.3 0.7 0.8v0.7l-0.7 0.7v0.8q8.5 9.3 12.9 9.3l6.2 5.3h-1.5v4.6q-1.5 5.4-7.7 5.4h-8.4q-10.7 0-10.7-9.2v-0.8q4.8-2 5.3-3.8l-1.5-4.7 0.8-0.7v-0.8h-1.5l-2.4 1.5-3.8-15.3v-1.5q0-2.3 8.4-2.3zm54.8-47.5h0.8l4.7 5.4-0.8 0.9h-0.8l-4.6-5.5zm-4 4.6l4-0.7q2.3 3 2.3 7v12.5l-0.8 2.4 0.8 3.9v4.6q0 35.2 6.2 35.2l3.1 2.3h3.9q8.6 0 20.4-18.8v0.9l2.3-0.9-0.8-13.1v-1.7l0.8-4.7-0.8-3.1 0.8-0.7h0.8q0-10-5.5-13.3l-3.9-0.8q0-1.2-5.4-3.1v-3.1l5.4-4.8 3.9 0.8h7l3.9-0.8 0.8 0.8 1.6-1.5q2.3 0 3 10.9v51.5q0 2 8.7 4.7l2.3 3.2v0.8q-1.6 3.1-3.9 3.1l1.6 2.3-0.8 0.8-0.8-0.8h-2.3v1.5q2.3 0 2.3 1.7v0.8h-1.5l-2.4-1.7-2.3 1.7-7-0.8-2.4 0.8v-0.8l0.8-0.9v-0.8q-2.6 0-7.1-6.2l-0.7-0.7h-0.8q-10.3 10.1-18.7 10.1h-5.5q-10.4 0-17.2-13.3l-0.7-0.8 0.7-0.7v-0.8q-3.2 0-3.8-16.5v-4.6q0-6.2 4.6-6.2v-1.6l-3.9-4.6 1.6-7.9q0-6.5-4.7-10.9l0.8-0.8v-0.8q-4.7 0-6.2-3.1-2.4 0-2.4-1.6l1.5-2.3-0.8-0.8q2.4 0 5.6-3.2zm-21.2 7.1h0.8l4.8 5.5-0.9 0.8h-0.7l-4.7-5.5zm7 6.2h0.8l0.8 0.8v0.8l-0.8 0.7h-0.8l-0.7-0.7v-0.8zm50.7 2.3l-1.6-2.3h1.6l1.5 1.5-0.7 0.8zm-2.4-1.5h0.8l0.8 0.7v0.8l-0.8 0.9h-0.8l-0.7-0.9v-0.8zm90.1-14.2h0.8l4.4 5.3-0.7 0.7h-0.7l-4.5-5.2zm-35.1 0.7h2.2q19.5 2 20.1 6.7h3q0-3.1 4.5-5.2h0.7l2.2 1.5 0.8-0.7v-0.8q3 0.8 3 4.5v8.3l0.8 3.7q-2.1 0-3.8 5.2l-5.2 6-0.8-0.8-0.7 0.8q-5.6-15.7-19.4-15.7h-6q-4 0-9.7 7.5l0.7 2.2-1.5 1.5q3.2 1.6 6 6l18 3.6-0.8 0.8v2.3l1.5 1.5h1.5l3.7-0.8v1.5l3.7-0.7 0.8 0.7v0.8l6.8-1.5-3-3.8 0.7-0.8h0.7q9.8 11.6 9.8 17.3v7.4q0 9.5-12.8 18l-0.7-0.7v-0.8q2.7-1.4 5.9-9.7l-1.4-5.3h-0.8q0 3.9-6 8.3l-5.9 11.9h-4.5l-3 0.8-8.2-2.2 2.3-3.8q-3.9-5.4-7.6-6-5.9 4.8-9.6 11.2l-3 0.8q-4.9 0-6-6.8l0.8-0.7h0.8v-1.5h-0.8l0.8-12.7v-11.2q0-1.4 6.6-3.8 0-2.2 1.5-2.2h0.8v0.8l-0.8 0.7v0.7l0.8-0.7h1.4v0.7l-1.4 2.4v2.2q3.4 7.1 14.9 17.2l3.8-0.8h2.9l3.8 2.2 0.7-0.8h0.8l0.7 0.8h0.7q5.2 0 12.7-9.7l-1.4-1.5 0.7-0.7v-0.8q-2.6-8.9-9-8.9v-1.6h1.5v-1.4h-1.5l-3 2.2-0.7-0.8v-0.7l2.2-2.2-2.2-0.8-0.7 0.8h-2.3l-4.4-2.3q0 1.8-3.8 4.5l-12-2.2-2.2 2.2h-0.8q-9.7-12.1-9.7-14.9l-0.6-6.7v-6q2.9-4.5 15.6-15 0-1.3 3.8-1.5zm16.4 34.3v-1.4h2.2v1.4zm61.2-62.7h1.5v0.8l0.7-0.8h1.5q0 2.3 2.2 2.3v2.2l0.8-0.7h0.7l1.5 1.4v0.8l-0.8-0.8h-1.4v0.8l-0.8 19.4 5.2 6q4-3.2 12.8-3.8l1.5 3.1 2.2-1.5h1.5q2.2 0 3.7 7.4 0 3.8-5.2 6.7l-14.9-2.3h-1.6l-5.9 6.1v36.6q0 4.8 8.9 11.9h3.8q8.3-4.7 8.3-16.4l0.7-0.7h0.7l-0.7-0.8v-0.8l0.7-0.7-0.7-0.7v-0.8l2.9-3.8h2.3l0.7 0.8 0.8-0.8h0.7q3.7 1.7 3.7 7.6v2.9q0 21.3-17.9 26.2v-0.8l-4.4 1.6h-3.8q-18.6-7.2-18.6-15.8-1.9 0-2.3-14.9v-14.2l0.7-0.8v-0.7l0.8 0.7h1.5l-1.5-4.4v-12q-3.1 0-4.5-4.5h-4.4l-6.1-1.4h-2.9l-2.3 1.4q-2.9-1.2-2.9-5.2v-0.8q4.2-8.2 19.4-8.2l5.9-5.2-0.7-3.8q0-18.6 6-18.6z"/></svg>